  <svg aria-hidden="true" style="position: absolute; width: 0; height: 0; overflow: hidden;" version="1.1"
    xmlns="http://www.w3.org/2000/svg" xmlns:xlink="http://www.w3.org/1999/xlink">
    <defs>
      <symbol id="icon-code" viewBox="0 0 15 14">
        <path
          d="M4.82 10.93l-0.391 0.391c-0.102 0.102-0.258 0.102-0.359 0l-3.641-3.641c-0.102-0.102-0.102-0.258 0-0.359l3.641-3.641c0.102-0.102 0.258-0.102 0.359 0l0.391 0.391c0.102 0.102 0.102 0.258 0 0.359l-3.070 3.070 3.070 3.070c0.102 0.102 0.102 0.258 0 0.359zM9.438 2.594l-2.914 10.086c-0.039 0.133-0.18 0.211-0.305 0.172l-0.484-0.133c-0.133-0.039-0.211-0.18-0.172-0.312l2.914-10.086c0.039-0.133 0.18-0.211 0.305-0.172l0.484 0.133c0.133 0.039 0.211 0.18 0.172 0.312zM14.57 7.68l-3.641 3.641c-0.102 0.102-0.258 0.102-0.359 0l-0.391-0.391c-0.102-0.102-0.102-0.258 0-0.359l3.070-3.070-3.070-3.070c-0.102-0.102-0.102-0.258 0-0.359l0.391-0.391c0.102-0.102 0.258-0.102 0.359 0l3.641 3.641c0.102 0.102 0.102 0.258 0 0.359z">
        </path>
      </symbol>
      <symbol id="icon-twitter" viewBox="0 0 13 14">
        <path
          d="M12.656 3.188c-0.344 0.5-0.773 0.945-1.266 1.305 0.008 0.109 0.008 0.219 0.008 0.328 0 3.336-2.539 7.18-7.18 7.18-1.43 0-2.758-0.414-3.875-1.133 0.203 0.023 0.398 0.031 0.609 0.031 1.18 0 2.266-0.398 3.133-1.078-1.109-0.023-2.039-0.75-2.359-1.75 0.156 0.023 0.312 0.039 0.477 0.039 0.227 0 0.453-0.031 0.664-0.086-1.156-0.234-2.023-1.25-2.023-2.477v-0.031c0.336 0.187 0.727 0.305 1.141 0.32-0.68-0.453-1.125-1.227-1.125-2.102 0-0.469 0.125-0.898 0.344-1.273 1.242 1.531 3.109 2.531 5.203 2.641-0.039-0.187-0.062-0.383-0.062-0.578 0-1.391 1.125-2.523 2.523-2.523 0.727 0 1.383 0.305 1.844 0.797 0.57-0.109 1.117-0.32 1.602-0.609-0.187 0.586-0.586 1.078-1.109 1.391 0.508-0.055 1-0.195 1.453-0.391z">
        </path>
      </symbol>
      <symbol id="icon-github" viewBox="0 0 12 14">
        <path
          d="M6 1c3.313 0 6 2.687 6 6 0 2.648-1.719 4.898-4.102 5.695-0.305 0.055-0.414-0.133-0.414-0.289 0-0.195 0.008-0.844 0.008-1.648 0-0.563-0.187-0.922-0.406-1.109 1.336-0.148 2.742-0.656 2.742-2.961 0-0.656-0.234-1.187-0.617-1.609 0.062-0.156 0.266-0.766-0.062-1.594-0.5-0.156-1.648 0.617-1.648 0.617-0.477-0.133-0.992-0.203-1.5-0.203s-1.023 0.070-1.5 0.203c0 0-1.148-0.773-1.648-0.617-0.328 0.828-0.125 1.438-0.062 1.594-0.383 0.422-0.617 0.953-0.617 1.609 0 2.297 1.398 2.812 2.734 2.961-0.172 0.156-0.328 0.422-0.383 0.805-0.344 0.156-1.219 0.422-1.742-0.5-0.328-0.57-0.922-0.617-0.922-0.617-0.586-0.008-0.039 0.367-0.039 0.367 0.391 0.18 0.664 0.875 0.664 0.875 0.352 1.070 2.023 0.711 2.023 0.711 0 0.5 0.008 0.969 0.008 1.117 0 0.156-0.109 0.344-0.414 0.289-2.383-0.797-4.102-3.047-4.102-5.695 0-3.313 2.687-6 6-6zM2.273 9.617c0.016-0.031-0.008-0.070-0.055-0.094-0.047-0.016-0.086-0.008-0.102 0.016-0.016 0.031 0.008 0.070 0.055 0.094 0.039 0.023 0.086 0.016 0.102-0.016zM2.516 9.883c0.031-0.023 0.023-0.078-0.016-0.125-0.039-0.039-0.094-0.055-0.125-0.023-0.031 0.023-0.023 0.078 0.016 0.125 0.039 0.039 0.094 0.055 0.125 0.023zM2.75 10.234c0.039-0.031 0.039-0.094 0-0.148-0.031-0.055-0.094-0.078-0.133-0.047-0.039 0.023-0.039 0.086 0 0.141s0.102 0.078 0.133 0.055zM3.078 10.562c0.031-0.031 0.016-0.102-0.031-0.148-0.055-0.055-0.125-0.062-0.156-0.023-0.039 0.031-0.023 0.102 0.031 0.148 0.055 0.055 0.125 0.062 0.156 0.023zM3.523 10.758c0.016-0.047-0.031-0.102-0.102-0.125-0.062-0.016-0.133 0.008-0.148 0.055s0.031 0.102 0.102 0.117c0.062 0.023 0.133 0 0.148-0.047zM4.016 10.797c0-0.055-0.062-0.094-0.133-0.086-0.070 0-0.125 0.039-0.125 0.086 0 0.055 0.055 0.094 0.133 0.086 0.070 0 0.125-0.039 0.125-0.086zM4.469 10.719c-0.008-0.047-0.070-0.078-0.141-0.070-0.070 0.016-0.117 0.062-0.109 0.117 0.008 0.047 0.070 0.078 0.141 0.062s0.117-0.062 0.109-0.109z">
        </path>
      </symbol>
      <symbol id="icon-linkedin" viewBox="0 0 12 14">
        <path
          d="M2.727 4.883v7.742h-2.578v-7.742h2.578zM2.891 2.492c0.008 0.742-0.555 1.336-1.453 1.336v0h-0.016c-0.867 0-1.422-0.594-1.422-1.336 0-0.758 0.578-1.336 1.453-1.336 0.883 0 1.43 0.578 1.438 1.336zM12 8.187v4.437h-2.57v-4.141c0-1.039-0.375-1.75-1.305-1.75-0.711 0-1.133 0.477-1.32 0.937-0.062 0.172-0.086 0.398-0.086 0.633v4.32h-2.57c0.031-7.016 0-7.742 0-7.742h2.57v1.125h-0.016c0.336-0.531 0.945-1.305 2.336-1.305 1.695 0 2.961 1.109 2.961 3.484z">
        </path>
      </symbol>
      <symbol id="icon-home" viewBox="0 0 13 14">
        <path
          d="M11 7.75v3.75c0 0.273-0.227 0.5-0.5 0.5h-3v-3h-2v3h-3c-0.273 0-0.5-0.227-0.5-0.5v-3.75c0-0.016 0.008-0.031 0.008-0.047l4.492-3.703 4.492 3.703c0.008 0.016 0.008 0.031 0.008 0.047zM12.742 7.211l-0.484 0.578c-0.039 0.047-0.102 0.078-0.164 0.086h-0.023c-0.062 0-0.117-0.016-0.164-0.055l-5.406-4.508-5.406 4.508c-0.055 0.039-0.117 0.062-0.187 0.055-0.062-0.008-0.125-0.039-0.164-0.086l-0.484-0.578c-0.086-0.102-0.070-0.266 0.031-0.352l5.617-4.68c0.328-0.273 0.859-0.273 1.187 0l1.906 1.594v-1.523c0-0.141 0.109-0.25 0.25-0.25h1.5c0.141 0 0.25 0.109 0.25 0.25v3.188l1.711 1.422c0.102 0.086 0.117 0.25 0.031 0.352z">
        </path>
      </symbol>
      <symbol id="icon-envelope" viewBox="0 0 14 14">
        <path
          d="M14 5.547v6.203c0 0.688-0.563 1.25-1.25 1.25h-11.5c-0.688 0-1.25-0.563-1.25-1.25v-6.203c0.234 0.258 0.5 0.484 0.789 0.68 1.297 0.883 2.609 1.766 3.883 2.695 0.656 0.484 1.469 1.078 2.32 1.078h0.016c0.852 0 1.664-0.594 2.32-1.078 1.273-0.922 2.586-1.812 3.891-2.695 0.281-0.195 0.547-0.422 0.781-0.68zM14 3.25c0 0.875-0.648 1.664-1.336 2.141-1.219 0.844-2.445 1.688-3.656 2.539-0.508 0.352-1.367 1.070-2 1.070h-0.016c-0.633 0-1.492-0.719-2-1.070-1.211-0.852-2.438-1.695-3.648-2.539-0.555-0.375-1.344-1.258-1.344-1.969 0-0.766 0.414-1.422 1.25-1.422h11.5c0.68 0 1.25 0.563 1.25 1.25z">
        </path>
      </symbol>
      <symbol id="icon-linux" viewBox="0 0 14 14">
        <path
          d="M5.18 3.211v0c-0.156 0.016-0.102 0.156-0.187 0.156-0.078 0.008-0.062-0.172 0.187-0.156zM5.859 3.32c-0.078 0.023-0.086-0.125-0.227-0.086v0c0.227-0.102 0.305 0.055 0.227 0.086zM3.117 6.656c-0.070-0.023-0.055 0.117-0.125 0.227-0.055 0.102-0.195 0.18-0.086 0.195v0c0.039 0.008 0.148-0.086 0.195-0.195 0.039-0.133 0.078-0.203 0.016-0.227zM9.797 9.461c0-0.141-0.305-0.273-0.43-0.328 0.211-0.703 0.117-0.984-0.023-1.648-0.109-0.5-0.57-1.18-0.93-1.391 0.094 0.078 0.266 0.305 0.445 0.648 0.312 0.586 0.625 1.453 0.422 2.172-0.078 0.281-0.266 0.32-0.391 0.328-0.547 0.062-0.227-0.656-0.453-1.633-0.258-1.094-0.523-1.172-0.586-1.258-0.32-1.422-0.672-1.281-0.773-1.812-0.086-0.477 0.414-0.867-0.266-1-0.211-0.039-0.508-0.25-0.625-0.266s-0.18-0.789 0.258-0.813c0.43-0.031 0.508 0.484 0.43 0.688-0.125 0.203 0.008 0.281 0.219 0.211 0.172-0.055 0.062-0.508 0.102-0.57-0.109-0.656-0.383-0.75-0.664-0.805-1.078 0.086-0.594 1.273-0.703 1.164-0.156-0.164-0.609-0.016-0.609-0.117 0.008-0.609-0.195-0.961-0.477-0.969-0.312-0.008-0.438 0.43-0.453 0.68-0.023 0.234 0.133 0.727 0.25 0.688 0.078-0.023 0.211-0.18 0.070-0.172-0.070 0-0.18-0.172-0.195-0.375-0.008-0.203 0.070-0.406 0.336-0.398 0.305 0.008 0.305 0.617 0.273 0.641-0.102 0.070-0.227 0.203-0.242 0.227-0.102 0.164-0.297 0.211-0.375 0.281-0.133 0.141-0.164 0.297-0.062 0.352 0.359 0.203 0.242 0.438 0.742 0.453 0.328 0.016 0.57-0.047 0.797-0.117 0.172-0.055 0.727-0.172 0.844-0.375 0.055-0.086 0.117-0.086 0.156-0.062 0.078 0.039 0.094 0.187-0.102 0.234-0.273 0.078-0.547 0.227-0.797 0.32-0.242 0.102-0.32 0.141-0.547 0.18-0.516 0.094-0.898-0.187-0.555 0.148 0.117 0.109 0.227 0.18 0.523 0.172 0.656-0.023 1.383-0.813 1.453-0.461 0.016 0.078-0.203 0.172-0.375 0.258-0.609 0.297-1.039 0.891-1.43 0.688-0.352-0.187-0.703-1.055-0.695-0.664 0.008 0.602-0.789 1.133-0.422 1.82-0.242 0.062-0.781 1.211-0.859 1.805-0.047 0.344 0.031 0.766-0.055 1-0.117 0.344-0.648-0.328-0.477-1.148 0.031-0.141 0-0.172-0.039-0.102-0.211 0.383-0.094 0.922 0.078 1.297 0.070 0.164 0.25 0.234 0.383 0.375 0.273 0.312 1.352 1.109 1.539 1.305 0.242 0.227 0.172 0.758-0.328 0.813v0c0.258 0.484 0.508 0.531 0.5 1.32 0.297-0.156 0.18-0.5 0.055-0.719-0.086-0.156-0.195-0.227-0.172-0.266 0.016-0.023 0.172-0.156 0.258-0.055 0.266 0.297 0.766 0.352 1.297 0.281 0.539-0.062 1.117-0.25 1.383-0.68 0.125-0.203 0.211-0.273 0.266-0.234 0.062 0.031 0.086 0.172 0.078 0.406-0.008 0.25-0.109 0.508-0.18 0.719-0.070 0.242-0.094 0.406 0.141 0.414 0.062-0.438 0.187-0.867 0.219-1.305 0.039-0.5-0.32-1.422 0.070-1.883 0.102-0.125 0.227-0.141 0.398-0.141 0.023-0.625 0.984-0.578 1.305-0.32zM4.891 3c0.031-0.195-0.062-0.336-0.109-0.352-0.094-0.023-0.078 0.117-0.031 0.102v0c0.031 0 0.070 0.047 0.055 0.117-0.016 0.094-0.008 0.156 0.062 0.156 0.008 0 0.023 0 0.023-0.023zM8.164 4.539c-0.031-0.148-0.141-0.094-0.266-0.172-0.148-0.094-0.18-0.25-0.234-0.195v0c-0.164 0.18 0.203 0.555 0.359 0.586 0.094 0.016 0.164-0.109 0.141-0.219zM6.773 2.875c0.008-0.187-0.156-0.281-0.195-0.273-0.102 0.008-0.070 0.055-0.023 0.070v0c0.062 0.016 0.125 0.125 0.141 0.242 0 0.016 0.078-0.016 0.078-0.039zM7.195 1.055c0.008-0.039-0.094-0.086-0.164-0.141-0.062-0.062-0.125-0.117-0.187-0.117-0.156 0.016-0.078 0.18-0.102 0.258v0c-0.031 0.086-0.148 0.156-0.070 0.219 0.070 0.055 0.117-0.086 0.266-0.141 0.039-0.016 0.219 0.008 0.258-0.078zM11.609 11.531c0.961 0.594-0.359 1.086-0.93 1.375-0.445 0.227-1.039 0.727-1.258 0.937-0.164 0.156-0.844 0.234-1.227 0.039-0.445-0.227-0.211-0.586-0.898-0.609-0.344-0.008-0.68-0.008-1.016-0.008-0.297 0.008-0.594 0.023-0.898 0.031-1.031 0.023-1.133 0.688-1.797 0.664-0.453-0.016-1.023-0.375-2.008-0.578-0.688-0.141-1.352-0.18-1.492-0.484s0.172-0.648 0.195-0.945c0.023-0.398-0.297-0.937-0.062-1.141 0.203-0.18 0.633-0.047 0.914-0.203 0.297-0.172 0.422-0.305 0.422-0.672 0.109 0.375-0.008 0.68-0.25 0.828-0.148 0.094-0.422 0.141-0.648 0.117-0.18-0.016-0.289 0.008-0.336 0.078-0.070 0.086-0.047 0.242 0.039 0.445s0.187 0.336 0.172 0.586c-0.008 0.25-0.289 0.547-0.242 0.758 0.016 0.078 0.094 0.148 0.289 0.203 0.312 0.086 0.883 0.172 1.438 0.305 0.617 0.156 1.258 0.438 1.656 0.383 1.187-0.164 0.508-1.438 0.32-1.742v0c-1.008-1.578-1.672-2.609-2.203-2.203-0.133 0.109-0.141-0.266-0.133-0.414 0.023-0.516 0.281-0.703 0.437-1.102 0.297-0.758 0.523-1.625 0.977-2.070 0.336-0.438 0.867-1.148 0.969-1.523-0.086-0.813-0.109-1.672-0.125-2.422-0.016-0.805 0.109-1.508 1.016-2 0.219-0.117 0.508-0.164 0.813-0.164 0.539-0.008 1.141 0.148 1.523 0.43 0.609 0.453 0.992 1.414 0.945 2.102-0.031 0.539 0.062 1.094 0.234 1.672 0.203 0.68 0.523 1.156 1.039 1.703 0.617 0.656 1.102 1.945 1.242 2.766 0.125 0.766-0.047 1.242-0.211 1.266-0.25 0.039-0.406 0.828-1.187 0.797-0.5-0.023-0.547-0.32-0.688-0.578-0.227-0.398-0.453-0.273-0.539 0.148-0.047 0.211-0.016 0.523 0.055 0.758 0.141 0.492 0.094 0.953 0.008 1.523-0.164 1.078 0.758 1.281 1.375 0.766 0.609-0.508 0.742-0.586 1.508-0.852 1.164-0.398 0.773-0.75 0.148-0.961-0.563-0.187-0.586-1.133-0.383-1.313 0.047 1.016 0.578 1.164 0.797 1.305z">
        </path>
      </symbol>
      <symbol id="icon-git" viewBox="0 0 14 14">
        <path
          d="M4.648 11.828c0-0.688-0.758-0.781-1.289-0.781-0.555 0-1.234 0.117-1.234 0.813 0 0.703 0.805 0.789 1.344 0.789 0.57 0 1.18-0.141 1.18-0.82zM4.188 5.93c0-0.586-0.281-1.117-0.93-1.117-0.719 0-0.969 0.477-0.969 1.133 0 0.648 0.281 1.055 0.969 1.055 0.68 0 0.93-0.438 0.93-1.070zM6.289 3.398v1.578c-0.203 0.070-0.406 0.125-0.617 0.172 0.078 0.211 0.125 0.43 0.125 0.656 0 1.32-0.813 2.328-2.109 2.57-0.391 0.078-0.617 0.242-0.617 0.664 0 1.195 3.156 0.383 3.156 2.586 0 1.789-1.211 2.375-2.836 2.375-1.336 0-2.859-0.445-2.859-2.055 0-0.937 0.57-1.477 1.422-1.758v-0.031c-0.359-0.219-0.523-0.563-0.523-0.984 0-0.398 0.086-0.891 0.492-1.070v-0.031c-0.789-0.266-1.305-1.352-1.305-2.141 0-1.461 1.133-2.531 2.578-2.531 0.484 0 0.969 0.125 1.391 0.367 0.586 0 1.164-0.156 1.703-0.367zM8.773 10.281h-1.734c0.031-0.352 0.031-0.695 0.031-1.047v-4.758c0-0.336 0.008-0.672-0.031-1h1.734c-0.039 0.32-0.031 0.648-0.031 0.969v4.789c0 0.352 0 0.695 0.031 1.047zM13.469 8.547v1.531c-0.414 0.227-0.891 0.305-1.359 0.305-1.672 0-1.867-1.32-1.867-2.68v-2.742h0.016v-0.031c-0.102 0-0.195-0.016-0.289-0.016-0.156 0-0.312 0.023-0.461 0.047v-1.484h0.75v-0.594c0-0.234-0.008-0.469-0.047-0.695h1.773c-0.062 0.43-0.047 0.859-0.047 1.289h1.336v1.484c-0.227 0-0.453-0.031-0.672-0.031h-0.664v2.852c0 0.461 0.102 1.023 0.68 1.023 0.305 0 0.602-0.086 0.852-0.258zM8.969 1.148c0 0.586-0.453 1.133-1.055 1.133-0.617 0-1.078-0.539-1.078-1.133 0-0.602 0.453-1.148 1.078-1.148 0.617 0 1.055 0.563 1.055 1.148z">
        </path>
      </symbol>
      <symbol id="icon-python-color" viewBox="0 0 640 640">
        <path fill="#326c9b" d="M257.96 66.28C205.7 75.51 196.22 94.82 196.22 130.46C196.22 133.6 196.22 149.28 196.22 177.52L319.69 177.52L319.69 193.2C217.81 193.2 161.21 193.2 149.89 193.2C114.01 193.2 82.59 214.77 72.76 255.81C61.42 302.83 60.92 332.18 72.76 381.29C81.53 417.84 102.49 443.88 138.38 443.88C141.21 443.88 155.36 443.88 180.83 443.88C180.83 410.03 180.83 391.23 180.83 387.47C180.83 346.72 216.08 310.77 257.96 310.77C270.29 310.77 368.95 310.77 381.29 310.77C415.62 310.77 443.02 282.5 443.02 248.03C443.02 236.27 443.02 142.22 443.02 130.47C443.02 97 414.79 71.86 381.29 66.28C360.07 62.75 338.06 61.15 316.96 61.24C295.84 61.34 275.7 63.14 257.96 66.28ZM273.36 122.69C273.36 135.66 262.94 146.14 250.19 146.14C237.39 146.14 227.02 135.65 227.02 122.69C227.02 109.67 237.39 99.09 250.19 99.09C262.94 99.09 273.36 109.67 273.36 122.69Z"></path><path fill="#ffd43b" d="M458.41 248.03C458.41 290.53 422.37 326.31 381.28 326.31C368.95 326.31 270.29 326.31 257.96 326.31C224.18 326.31 196.23 355.22 196.23 389.05C196.23 400.81 196.23 494.87 196.23 506.63C196.23 540.08 225.32 559.77 257.96 569.36C297.04 580.84 334.52 582.92 381.28 569.36C412.36 560.35 443.01 542.24 443.01 506.63C443.01 503.49 443.01 487.8 443.01 459.57L319.69 459.57L319.69 443.87C430.73 443.87 492.41 443.87 504.75 443.87C540.63 443.87 554.01 418.85 566.49 381.28C579.38 342.6 578.83 305.41 566.49 255.8C557.62 220.07 540.68 193.19 504.75 193.19C501.66 193.19 486.21 193.19 458.41 193.19C458.41 226.1 458.41 244.37 458.41 248.03ZM412.22 514.4C412.22 527.41 401.85 537.99 389.04 537.99C376.3 537.99 365.88 527.41 365.88 514.4C365.88 501.42 376.3 490.94 389.04 490.94C401.85 490.94 412.22 501.42 412.22 514.4Z" id="a9cQrvvb0"></path>
      </symbol>
      <symbol id="icon-python1" viewBox="0 0 14 14">
        <path fill="#3776ab" style="fill: var(--color1, #3776ab)"
          d="M8.348 0.105l0.525 0.117 0.426 0.152 0.344 0.175 0.263 0.187 0.198 0.198 0.146 0.198 0.093 0.192 0.058 0.175 0.023 0.152 0.012 0.117-0.006 0.076v3.115l-0.029 0.368-0.076 0.321-0.123 0.268-0.152 0.222-0.175 0.181-0.193 0.146-0.204 0.111-0.204 0.082-0.193 0.058-0.175 0.041-0.152 0.023-0.123 0.012h-3.482l-0.402 0.029-0.344 0.082-0.292 0.128-0.239 0.157-0.192 0.187-0.157 0.204-0.117 0.21-0.088 0.216-0.058 0.204-0.041 0.187-0.023 0.157-0.012 0.123v1.785h-1.301l-0.123-0.018-0.163-0.041-0.187-0.070-0.204-0.105-0.21-0.152-0.21-0.21-0.204-0.268-0.187-0.344-0.163-0.426-0.123-0.513-0.082-0.613-0.029-0.717 0.035-0.712 0.093-0.607 0.14-0.508 0.187-0.414 0.21-0.333 0.233-0.257 0.245-0.192 0.245-0.14 0.233-0.093 0.21-0.058 0.187-0.029 0.14-0.006h0.093l0.035 0.006h4.76v-0.484h-3.407l-0.006-1.604-0.012-0.216 0.029-0.198 0.064-0.181 0.099-0.163 0.146-0.152 0.181-0.134 0.222-0.117 0.257-0.105 0.298-0.087 0.338-0.070 0.373-0.058 0.414-0.035 0.449-0.023 0.49-0.012 0.741 0.029zM4.672 1.26l-0.134 0.192-0.047 0.239 0.047 0.239 0.134 0.198 0.192 0.128 0.239 0.052 0.239-0.052 0.192-0.128 0.134-0.198 0.047-0.239-0.047-0.239-0.134-0.192-0.192-0.128-0.239-0.052-0.239 0.052zM12.308 3.564l0.163 0.035 0.187 0.070 0.204 0.105 0.21 0.157 0.21 0.204 0.204 0.274 0.187 0.344 0.163 0.426 0.123 0.513 0.082 0.607 0.029 0.717-0.035 0.718-0.093 0.607-0.14 0.502-0.187 0.414-0.21 0.333-0.233 0.263-0.245 0.193-0.245 0.14-0.233 0.093-0.21 0.053-0.187 0.029-0.14 0.012-0.093-0.006h-4.795v0.478h3.407l0.006 1.61 0.012 0.21-0.029 0.198-0.064 0.181-0.099 0.169-0.146 0.146-0.181 0.14-0.222 0.117-0.257 0.099-0.297 0.088-0.338 0.076-0.373 0.053-0.414 0.041-0.449 0.023-0.49 0.006-0.741-0.023-0.624-0.082-0.525-0.117-0.426-0.146-0.344-0.175-0.263-0.193-0.198-0.198-0.146-0.198-0.093-0.193-0.058-0.175-0.023-0.146-0.012-0.117 0.006-0.076v-3.115l0.029-0.373 0.076-0.315 0.122-0.268 0.152-0.222 0.175-0.187 0.192-0.14 0.204-0.117 0.204-0.082 0.192-0.058 0.175-0.035 0.152-0.023 0.122-0.012 0.076-0.006h3.407l0.402-0.029 0.344-0.082 0.292-0.122 0.239-0.163 0.193-0.187 0.157-0.204 0.117-0.21 0.087-0.21 0.058-0.204 0.041-0.187 0.023-0.163 0.012-0.122v-1.785h1.219l0.082 0.006zM8.534 11.877l-0.134 0.193-0.047 0.239 0.047 0.239 0.134 0.193 0.193 0.134 0.239 0.047 0.239-0.047 0.193-0.134 0.134-0.193 0.047-0.239-0.047-0.239-0.134-0.193-0.193-0.134-0.239-0.047-0.239 0.047z">
        </path>
      </symbol>
      <symbol id="icon-javascript" viewBox="0 0 14 14">
        <path style="fill: currentColor"
          d="M0 0h13.999v13.999h-13.999zM12.853 10.661c-0.102-0.639-0.518-1.175-1.752-1.676-0.429-0.201-0.906-0.341-1.048-0.665-0.053-0.192-0.061-0.297-0.027-0.411 0.087-0.377 0.534-0.49 0.884-0.385 0.227 0.070 0.437 0.245 0.569 0.525 0.603-0.394 0.603-0.394 1.024-0.656-0.157-0.245-0.236-0.351-0.342-0.455-0.367-0.411-0.857-0.621-1.653-0.603l-0.411 0.052c-0.394 0.096-0.77 0.306-0.997 0.586-0.665 0.753-0.473 2.065 0.332 2.608 0.796 0.595 1.96 0.726 2.109 1.286 0.14 0.682-0.507 0.901-1.147 0.822-0.473-0.105-0.735-0.342-1.024-0.779l-1.067 0.613c0.123 0.28 0.262 0.402 0.472 0.647 1.015 1.024 3.552 0.972 4.008-0.586 0.017-0.053 0.14-0.411 0.043-0.962zM7.613 6.435h-1.311c0 1.13-0.005 2.254-0.005 3.386 0 0.719 0.037 1.378-0.080 1.581-0.192 0.402-0.688 0.351-0.913 0.28-0.231-0.114-0.348-0.272-0.484-0.499-0.037-0.061-0.064-0.114-0.074-0.114l-1.065 0.656c0.178 0.367 0.437 0.684 0.772 0.885 0.499 0.297 1.169 0.394 1.871 0.236 0.457-0.132 0.85-0.403 1.056-0.823 0.297-0.542 0.234-1.207 0.232-1.952 0.007-1.198 0-2.397 0-3.604z">
        </path>
      </symbol>
      <symbol id="icon-ruby" viewBox="0 0 14 14">
        <path fill="#cc342d"
          d="M11.758 0.048c1.769 0.306 2.271 1.515 2.234 2.783l0.009-0.018-0.796 10.435-10.342 0.709c-0.859-0.036-2.774-0.115-2.862-2.792l0.96-1.75 1.938 4.525 1.636-5.334-0.018 0.004 0.009-0.017 5.399 1.724-0.814-3.168-0.578-2.275 5.145-0.332-0.359-0.298-3.694-3.011 2.134-1.191zM0 11.135v0.015-0.017zM2.992 2.959c2.077-2.061 4.758-3.279 5.788-2.24 1.028 1.037-0.061 3.561-2.143 5.621-2.078 2.060-4.727 3.345-5.754 2.308-1.030-1.037 0.026-3.627 2.107-5.688z">
        </path>
      </symbol>
      <symbol id="icon-nim" viewBox="0 0 14 14">
        <path fill="#ffe953" style="fill: var(--nimlang-logo-color)" 
          d="M7.055 1.692c0 0-0.537 0.454-1.083 0.904-0.562-0.019-1.666 0.116-2.263 0.349-0.552-0.373-1.036-0.786-1.036-0.786s-0.414 0.761-0.673 1.207c-0.386 0.22-0.773 0.467-1.118 0.793-0.401-0.169-0.866-0.378-0.881-0.384 0.531 1.147 0.889 2.295 1.861 2.986 1.548-2.615 8.74-2.374 10.32-0.015 1.021-0.57 1.417-1.795 1.819-2.927-0.044 0.015-0.59 0.211-0.944 0.356-0.212-0.247-0.71-0.625-0.993-0.808-0.362-0.715-0.581-1.12-0.805-1.522l0.146 0.284c0 0-0.463 0.369-1 0.771-0.725-0.143-1.602-0.317-2.34-0.274-0.365-0.325-0.693-0.63-1.014-0.942l0.007 0.007zM0.55 6.213l1.277 3.308c2.217 3.13 7.879 3.348 10.348 0.061 0.584-1.409 1.372-3.388 1.372-3.388-0.633 1.004-1.664 1.697-2.298 2.070-0.451 0.264-1.492 0.424-1.492 0.424l-2.732-1.515-2.747 1.485c0 0-1.027-0.177-1.492-0.409-0.938-0.536-1.569-1.169-2.235-2.036z">
        </path>
      </symbol>
      <symbol id="icon-python" viewBox="0 0 14 14">
        <path fill="#3776ab" style="fill: var(--color1, #3776ab)"
          d="M8.348 0.105l0.525 0.117 0.426 0.152 0.344 0.175 0.263 0.187 0.198 0.198 0.146 0.198 0.093 0.192 0.058 0.175 0.023 0.152 0.012 0.117-0.006 0.076v3.115l-0.029 0.368-0.076 0.321-0.123 0.268-0.152 0.222-0.175 0.181-0.193 0.146-0.204 0.111-0.204 0.082-0.193 0.058-0.175 0.041-0.152 0.023-0.123 0.012h-3.482l-0.402 0.029-0.344 0.082-0.292 0.128-0.239 0.157-0.192 0.187-0.157 0.204-0.117 0.21-0.088 0.216-0.058 0.204-0.041 0.187-0.023 0.157-0.012 0.123v1.785h-1.301l-0.123-0.018-0.163-0.041-0.187-0.070-0.204-0.105-0.21-0.152-0.21-0.21-0.204-0.268-0.187-0.344-0.163-0.426-0.123-0.513-0.082-0.613-0.029-0.717 0.035-0.712 0.093-0.607 0.14-0.508 0.187-0.414 0.21-0.333 0.233-0.257 0.245-0.192 0.245-0.14 0.233-0.093 0.21-0.058 0.187-0.029 0.14-0.006h0.093l0.035 0.006h4.76v-0.484h-3.407l-0.006-1.604-0.012-0.216 0.029-0.198 0.064-0.181 0.099-0.163 0.146-0.152 0.181-0.134 0.222-0.117 0.257-0.105 0.298-0.087 0.338-0.070 0.373-0.058 0.414-0.035 0.449-0.023 0.49-0.012 0.741 0.029zM4.672 1.26l-0.134 0.192-0.047 0.239 0.047 0.239 0.134 0.198 0.192 0.128 0.239 0.052 0.239-0.052 0.192-0.128 0.134-0.198 0.047-0.239-0.047-0.239-0.134-0.192-0.192-0.128-0.239-0.052-0.239 0.052zM12.308 3.564l0.163 0.035 0.187 0.070 0.204 0.105 0.21 0.157 0.21 0.204 0.204 0.274 0.187 0.344 0.163 0.426 0.123 0.513 0.082 0.607 0.029 0.717-0.035 0.718-0.093 0.607-0.14 0.502-0.187 0.414-0.21 0.333-0.233 0.263-0.245 0.193-0.245 0.14-0.233 0.093-0.21 0.053-0.187 0.029-0.14 0.012-0.093-0.006h-4.795v0.478h3.407l0.006 1.61 0.012 0.21-0.029 0.198-0.064 0.181-0.099 0.169-0.146 0.146-0.181 0.14-0.222 0.117-0.257 0.099-0.297 0.088-0.338 0.076-0.373 0.053-0.414 0.041-0.449 0.023-0.49 0.006-0.741-0.023-0.624-0.082-0.525-0.117-0.426-0.146-0.344-0.175-0.263-0.193-0.198-0.198-0.146-0.198-0.093-0.193-0.058-0.175-0.023-0.146-0.012-0.117 0.006-0.076v-3.115l0.029-0.373 0.076-0.315 0.122-0.268 0.152-0.222 0.175-0.187 0.192-0.14 0.204-0.117 0.204-0.082 0.192-0.058 0.175-0.035 0.152-0.023 0.122-0.012 0.076-0.006h3.407l0.402-0.029 0.344-0.082 0.292-0.122 0.239-0.163 0.193-0.187 0.157-0.204 0.117-0.21 0.087-0.21 0.058-0.204 0.041-0.187 0.023-0.163 0.012-0.122v-1.785h1.219l0.082 0.006zM8.534 11.877l-0.134 0.193-0.047 0.239 0.047 0.239 0.134 0.193 0.193 0.134 0.239 0.047 0.239-0.047 0.193-0.134 0.134-0.193 0.047-0.239-0.047-0.239-0.134-0.193-0.193-0.134-0.239-0.047-0.239 0.047z">
        </path>
      </symbol>
      <symbol id="icon-embed2" viewBox="0 0 18 14">
        <path d="M11.375 10.063l1.313 1.313 4.375-4.375-4.375-4.375-1.313 1.313 3.063 3.063z"></path>
        <path d="M6.125 3.938l-1.313-1.313-4.375 4.375 4.375 4.375 1.313-1.313-3.063-3.063z"></path>
        <path d="M9.588 2.058l0.95 0.259-2.625 9.625-0.95-0.259 2.625-9.625z"></path>
      </symbol>
      <symbol id="icon-twitter1" viewBox="0 0 14 14">
        <path
          d="M14 3.095c-0.514 0.23-1.069 0.383-1.649 0.451 0.593-0.355 1.047-0.919 1.263-1.589-0.555 0.328-1.17 0.569-1.824 0.697-0.525-0.558-1.271-0.905-2.097-0.905-1.586 0-2.871 1.285-2.871 2.871 0 0.224 0.025 0.443 0.074 0.654-2.387-0.12-4.504-1.263-5.92-3.002-0.246 0.424-0.388 0.919-0.388 1.444 0 0.995 0.506 1.876 1.277 2.39-0.47-0.014-0.913-0.145-1.302-0.358 0 0.011 0 0.025 0 0.036 0 1.392 0.99 2.554 2.305 2.816-0.241 0.066-0.495 0.101-0.757 0.101-0.186 0-0.364-0.019-0.541-0.052 0.366 1.14 1.427 1.971 2.682 1.996-0.984 0.771-2.22 1.23-3.568 1.23-0.232 0-0.459-0.014-0.686-0.041 1.274 0.818 2.784 1.291 4.405 1.291 5.283 0 8.173-4.378 8.173-8.173 0-0.126-0.003-0.249-0.008-0.372 0.561-0.402 1.047-0.908 1.433-1.485z">
        </path>
      </symbol>
      <symbol id="icon-github1" viewBox="0 0 14 14">
        <path
          d="M7 0.173c-3.866 0-7 3.134-7 7 0 3.093 2.006 5.717 4.787 6.642 0.35 0.065 0.478-0.152 0.478-0.337 0-0.167-0.007-0.718-0.010-1.303-1.948 0.424-2.358-0.826-2.358-0.826-0.318-0.809-0.777-1.024-0.777-1.024-0.635-0.434 0.048-0.426 0.048-0.426 0.703 0.049 1.073 0.721 1.073 0.721 0.624 1.070 1.638 0.761 2.037 0.582 0.063-0.452 0.244-0.761 0.444-0.936-1.555-0.177-3.189-0.777-3.189-3.459 0-0.764 0.273-1.389 0.721-1.879-0.073-0.176-0.312-0.888 0.068-1.853 0 0 0.588-0.188 1.926 0.718 0.558-0.155 1.157-0.233 1.752-0.236 0.595 0.003 1.194 0.080 1.753 0.236 1.336-0.906 1.923-0.718 1.923-0.718 0.381 0.964 0.142 1.676 0.069 1.853 0.449 0.49 0.72 1.115 0.72 1.879 0 2.689-1.638 3.281-3.196 3.454 0.251 0.217 0.475 0.643 0.475 1.296 0 0.937-0.008 1.69-0.008 1.921 0 0.186 0.126 0.405 0.481 0.336 2.78-0.927 4.783-3.55 4.783-6.641 0-3.866-3.134-7-7-7z">
        </path>
      </symbol>
      <symbol id="icon-file-excel" viewBox="0 0 14 14">
        <path
          d="M10.159 5.25h-1.85l-1.309 1.928-1.309-1.928h-1.85l2.217 3.315-2.502 3.685h3.443v-1.252h-0.686l0.686-1.025 1.523 2.277h1.92l-2.502-3.685 2.217-3.315z">
        </path>
        <path
          d="M12.548 3.132c-0.304-0.414-0.727-0.898-1.192-1.363s-0.949-0.888-1.363-1.192c-0.705-0.517-1.047-0.577-1.243-0.577h-6.781c-0.603 0-1.094 0.491-1.094 1.094v11.813c0 0.603 0.491 1.094 1.094 1.094h10.063c0.603 0 1.094-0.491 1.094-1.094v-8.531c0-0.196-0.060-0.538-0.577-1.243v0zM10.738 2.387c0.42 0.42 0.749 0.798 0.992 1.113h-2.105v-2.105c0.314 0.243 0.693 0.573 1.113 0.992v0zM12.25 12.906c0 0.119-0.1 0.219-0.219 0.219h-10.063c-0.119 0-0.219-0.1-0.219-0.219v-11.813c0-0.119 0.1-0.219 0.219-0.219 0 0 6.781-0 6.781 0v3.063c0 0.242 0.196 0.438 0.438 0.438h3.063v8.531z">
        </path>
      </symbol>
    </defs>
  </svg>
